<svg viewBox="0 0 12 12" width="168px" height="168px" xmlns="http://www.w3.org/2000/svg"><path fill-rule="evenodd" d="M 3,0 9,0 9,3 10,3 10,4 11,4 11,5 12,5 12,11 0,11 0,5 1,5 1,4 2,4 2,3 3,3z" fill="#43BF4D"/><path fill-rule="evenodd" d="M 4,1 5,1 5,2 4,2z" fill="#ffffff"/><path fill-rule="evenodd" d="M 7,1 8,1 8,2 7,2z" fill="#ffffff"/><path fill-rule="evenodd" d="M 3,4 9,4 9,5 7,5 7,7 8,7 8,10 7,10 7,9 5,9 5,10 4,10 4,7 5,7 5,5 3,5z" fill="#ffffff"/><path fill-rule="evenodd" d="M 2,5 3,5 3,9 2,9 2,10 1,10 1,6 2,6z" fill="#ffffff"/><path fill-rule="evenodd" d="M 9,5 10,5 10,6 11,6 11,10 10,10 10,9 9,9z" fill="#ffffff"/></svg>